<?xml version="1.0" encoding="UTF-8" standalone="no"?>
<!-- Generator: Adobe Illustrator 16.0.0, SVG Export Plug-In . SVG Version: 6.00 Build 0)  -->

<svg
   xmlns:dc="http://purl.org/dc/elements/1.1/"
   xmlns:cc="http://creativecommons.org/ns#"
   xmlns:rdf="http://www.w3.org/1999/02/22-rdf-syntax-ns#"
   xmlns:svg="http://www.w3.org/2000/svg"
   xmlns="http://www.w3.org/2000/svg"
   xmlns:sodipodi="http://sodipodi.sourceforge.net/DTD/sodipodi-0.dtd"
   xmlns:inkscape="http://www.inkscape.org/namespaces/inkscape"
   version="1.1"
   id="图层_1"
   x="0px"
   y="0px"
   width="177.16534"
   height="70.866142"
   viewBox="0 0 177.16535 70.866141"
   enable-background="new 0 0 56.69 28.35"
   xml:space="preserve"
   inkscape:version="0.48.3.1 r9886"
   sodipodi:docname="stone2.svg"><metadata
   id="metadata19"><rdf:RDF><cc:Work
       rdf:about=""><dc:format>image/svg+xml</dc:format><dc:type
         rdf:resource="http://purl.org/dc/dcmitype/StillImage" /></cc:Work></rdf:RDF></metadata><defs
   id="defs17" /><sodipodi:namedview
   pagecolor="#ffffff"
   bordercolor="#666666"
   borderopacity="1"
   objecttolerance="10"
   gridtolerance="10"
   guidetolerance="10"
   inkscape:pageopacity="0"
   inkscape:pageshadow="2"
   inkscape:window-width="1366"
   inkscape:window-height="744"
   id="namedview15"
   showgrid="false"
   units="cm"
   inkscape:zoom="5.1508204"
   inkscape:cx="92.989204"
   inkscape:cy="14.175"
   inkscape:window-x="0"
   inkscape:window-y="24"
   inkscape:window-maximized="1"
   inkscape:current-layer="图层_1" />
<g
   id="g3"
   transform="matrix(3.0757625,0,0,3.5827336,1.5531507,-14.756007)">
	<path
   d="m 0.421,17.593 c 0.534,1.8 1.798,3.513 3.512,3.513 1.181,0 2.248,-0.675 2.248,-2.219 0,-1.49 -0.956,-2.221 -2.332,-2.783 -1.771,-0.673 -3.344,-1.602 -3.344,-3.374 0,-1.741 1.574,-3.343 4.019,-3.315 1.012,0 1.686,0.225 2.191,0.45 0.197,0.646 0.45,2.05 0.534,2.837 L 6.855,12.871 C 6.378,11.466 5.338,10.033 3.906,10.033 c -1.377,0 -2.08,0.956 -2.08,2.079 0,1.377 1.377,2.053 2.5,2.501 1.967,0.76 3.343,1.771 3.343,3.599 0,2.247 -2.051,3.512 -4.214,3.512 -1.461,0 -2.642,-0.506 -3.035,-0.926 C 0.225,20.347 0.084,18.634 0,17.734 l 0.421,-0.141 z"
   id="path5"
   inkscape:connector-curvature="0" />
	<path
   d="m 14.555,21.415 c -0.506,0.28 -0.815,0.309 -1.152,0.309 -1.573,0 -2.332,-1.123 -2.332,-3.035 V 10.623 H 9.048 L 8.963,10.314 9.722,9.725 h 1.349 V 8.178 l 0.956,-1.911 0.394,-0.028 v 3.484 h 3.372 c 0.056,0.112 0.084,0.226 0.084,0.337 0,0.197 -0.084,0.394 -0.281,0.562 h -3.175 v 7.309 c 0,2.276 0.759,2.753 1.686,2.753 0.956,0 1.629,-0.392 1.939,-0.561 l 0.225,0.421 -1.716,0.871 z"
   id="path7"
   inkscape:connector-curvature="0" />
	<path
   d="m 29.698,15.346 c 0,4.242 -3.483,6.378 -6.181,6.378 -3.709,0 -6.238,-2.81 -6.238,-5.873 0,-4.554 3.821,-6.436 6.182,-6.436 3.541,0 6.237,2.668 6.237,5.931 z M 19.049,14.923 c 0,3.597 1.883,6.154 4.862,6.154 2.36,0 4.074,-1.518 4.074,-5.31 0,-2.729 -1.658,-5.679 -4.778,-5.679 -2.584,0.001 -4.158,2.024 -4.158,4.835 z"
   id="path9"
   inkscape:connector-curvature="0" />
	<path
   d="m 31.692,21.021 c 1.629,-0.111 2.079,-0.533 2.079,-2.22 v -5.65 c 0,-1.883 -0.197,-1.995 -1.771,-2.304 v -0.366 c 1.125,-0.28 2.25,-0.533 3.12,-1.179 v 2.332 c 0.562,-0.338 1.265,-0.843 2.136,-1.433 0.786,-0.478 1.489,-0.787 2.275,-0.787 2.332,0 3.653,1.433 3.653,3.653 v 5.594 c 0,1.967 0.252,2.249 1.825,2.36 v 0.394 h -5.422 v -0.394 c 1.911,-0.111 2.248,-0.505 2.248,-2.36 v -4.609 c 0,-1.603 -0.449,-3.401 -3.035,-3.401 -1.376,0 -2.81,0.842 -3.681,1.714 v 6.323 c 0,1.8 0.281,2.222 2.22,2.333 v 0.394 h -5.647 v -0.394 z"
   id="path11"
   inkscape:connector-curvature="0" />
	<path
   d="m 56.362,19.278 c -1.658,1.911 -3.568,2.445 -4.215,2.445 -3.316,0 -5.367,-2.642 -5.367,-5.62 0,-4.132 3.372,-6.689 5.647,-6.689 2.416,0 4.158,1.967 4.158,3.962 0,0.562 -0.027,0.647 -0.478,0.731 -0.449,0.084 -4.046,0.395 -7.924,0.506 -0.027,4.273 2.529,5.79 4.468,5.79 0.955,0 1.967,-0.196 3.4,-1.546 l 0.311,0.421 z m -8.008,-5.564 c 0.646,0 4.608,-0.057 5.816,-0.084 0.702,0 0.702,-0.282 0.702,-0.45 0,-1.574 -1.18,-2.978 -3.203,-2.978 -1.404,0 -2.895,1.236 -3.315,3.512 z"
   id="path13"
   inkscape:connector-curvature="0" />
</g>
</svg>