<?xml version="1.0" encoding="UTF-8" standalone="no"?>
<!-- Created with Inkscape (http://www.inkscape.org/) -->

<svg
   xmlns:dc="http://purl.org/dc/elements/1.1/"
   xmlns:cc="http://creativecommons.org/ns#"
   xmlns:rdf="http://www.w3.org/1999/02/22-rdf-syntax-ns#"
   xmlns:svg="http://www.w3.org/2000/svg"
   xmlns="http://www.w3.org/2000/svg"
   version="1.1"
   width="300"
   height="99"
   viewBox="0 0 300 100"
   id="svg2">
  <defs
     id="defs4">
    <linearGradient
       id="linearGradient5298">
      <stop
         id="stop5300"
         style="stop-color:#000000;stop-opacity:1"
         offset="0" />
    </linearGradient>
    <linearGradient
       id="linearGradient5272">
      <stop
         id="stop5274"
         style="stop-color:#000000;stop-opacity:1"
         offset="0" />
    </linearGradient>
    <linearGradient
       id="linearGradient5254">
      <stop
         id="stop5256"
         style="stop-color:#000000;stop-opacity:1"
         offset="0" />
    </linearGradient>
  </defs>
  <metadata
     id="metadata7">
    <rdf:RDF>
      <cc:Work
         rdf:about="">
        <dc:format>image/svg+xml</dc:format>
        <dc:type
           rdf:resource="http://purl.org/dc/dcmitype/StillImage" />
        <dc:title></dc:title>
      </cc:Work>
    </rdf:RDF>
  </metadata>
  <g
     transform="translate(0,-953.36218)"
     id="layer1">
    <g
       transform="matrix(0.93321081,0,0,1.0093943,4.1251357,35.292676)"
       id="text3027"
       style="font-size:108.53461456px;font-style:normal;font-weight:normal;text-align:center;line-height:125%;letter-spacing:0px;word-spacing:0px;text-anchor:middle;fill:#000000;fill-opacity:1;stroke:none;font-family:Sans">
      <path
         d="m 57.62481,922.23579 0,10.44009 c -4.063036,-1.94309 -7.896368,-3.39163 -11.500006,-4.34562 -3.603731,-0.95385 -7.08376,-1.4308 -10.440097,-1.43088 -5.829526,8e-5 -10.334132,1.13064 -13.513831,3.39171 -3.144415,2.2612 -4.716611,5.47626 -4.716593,9.64517 -1.8e-5,3.49775 1.042225,6.14752 3.12673,7.94931 2.119794,1.76656 6.112111,3.19744 11.976964,4.29263 l 6.465441,1.32488 c 7.984596,1.51925 13.867081,4.20435 17.647474,8.05531 3.815609,3.8157 5.723442,8.93859 5.723505,15.36867 -6.3e-5,7.66668 -2.57917,13.47851 -7.737331,17.43549 -5.12294,3.95699 -12.648282,5.93545 -22.576047,5.93545 -3.745039,0 -7.737356,-0.42393 -11.976965,-1.27185 -4.204319,-0.84793 -8.567604,-2.10215 -13.0898678,-3.76268 l 0,-11.02304 c 4.3456128,2.4378 8.6029068,4.27497 12.7718958,5.51152 4.168948,1.23657 8.267256,1.85485 12.294937,1.85484 6.112099,10e-6 10.828686,-1.20122 14.149776,-3.60369 3.320996,-2.40245 4.981518,-5.82948 4.981569,-10.28111 -5.1e-5,-3.88631 -1.20128,-6.92471 -3.603688,-9.11521 -2.367175,-2.19045 -6.271166,-3.8333 -11.711987,-4.92858 l -6.518437,-1.27189 c -7.984664,-1.58982 -13.761159,-4.0806 -17.329501,-7.47235 -3.5683672,-3.39166 -5.3525445,-8.10825 -5.3525373,-14.14978 -7.2e-6,-6.99533 2.4554447,-12.50685 7.3663633,-16.53457 4.946219,-4.02757 11.747291,-6.04139 20.403235,-6.04147 3.709641,8e-5 7.489977,0.33571 11.34102,1.00691 3.85095,0.67135 7.790272,1.67826 11.817978,3.02074"
         id="path3032"
         style="fill:#000000;fill-opacity:1;stroke:#000000;stroke-width:1.00045812;stroke-miterlimit:4;stroke-opacity:1;stroke-dasharray:none" />
      <path
         d="m 88.309157,922.55376 0,16.85254 20.085263,0 0,7.57835 -20.085263,0 0,32.22121 c -2e-5,4.84026 0.653589,7.94932 1.96083,9.32719 1.342528,1.37789 4.045291,2.06683 8.108299,2.06683 l 10.016134,0 0,8.16129 -10.016134,0 c -7.525372,0 -12.718917,-1.39555 -15.580653,-4.18664 -2.861764,-2.82641 -4.292638,-7.9493 -4.292628,-15.36867 l 0,-32.22121 -7.154382,0 0,-7.57835 7.154382,0 0,-16.85254 9.804152,0"
         id="path3034"
         style="fill:#000000;fill-opacity:1;stroke:#000000;stroke-width:1.00045812;stroke-miterlimit:4;stroke-opacity:1;stroke-dasharray:none" />
      <path
         d="m 144.27232,946.24271 c -5.22891,5e-5 -9.36255,2.04921 -12.40093,6.14747 -3.03842,4.06302 -4.55762,9.6452 -4.55761,16.74655 -10e-6,7.10141 1.50152,12.70125 4.50461,16.79955 3.03838,4.06299 7.18969,6.09448 12.45393,6.09447 5.19351,10e-6 9.30948,-2.04915 12.34793,-6.14747 3.03835,-4.09829 4.55755,-9.68047 4.5576,-16.74655 -5e-5,-7.03069 -1.51925,-12.5952 -4.5576,-16.69356 -3.03845,-4.13359 -7.15442,-6.20041 -12.34793,-6.20046 m 0,-8.26728 c 8.47922,6e-5 15.13897,2.75582 19.97927,8.26728 4.84019,5.51157 7.26031,13.1429 7.26037,22.89402 -6e-5,9.71585 -2.42018,17.34718 -7.26037,22.89402 -4.8403,5.51153 -11.50005,8.26725 -19.97927,8.26725 -8.51463,0 -15.19204,-2.75572 -20.03227,-8.26725 -4.80493,-5.54684 -7.20738,-13.17817 -7.20738,-22.89402 0,-9.75112 2.40245,-17.38245 7.20738,-22.89402 4.84023,-5.51146 11.51764,-8.26722 20.03227,-8.26728"
         id="path3036"
         style="fill:#000000;fill-opacity:1;stroke:#000000;stroke-opacity:1" />
      <path
         d="m 236.96131,962.93627 0,35.8249 -9.75115,0 0,-35.50693 c -5e-5,-5.61747 -1.09529,-9.82177 -3.28572,-12.61291 -2.19052,-2.79104 -5.47623,-4.18659 -9.85715,-4.18664 -5.26424,5e-5 -9.41554,1.67824 -12.45392,5.03457 -3.03843,3.35642 -4.55763,7.93168 -4.55761,13.72581 l 0,33.5461 -9.80415,0 0,-59.35487 9.80415,0 0,9.2212 c 2.33178,-3.5683 5.06987,-6.23573 8.21429,-8.0023 3.1797,-1.76646 6.83638,-2.64971 10.97005,-2.64977 6.8187,6e-5 11.97692,2.11987 15.47467,6.35945 3.49764,4.20435 5.24648,10.40481 5.24654,18.60139"
         id="path3038"
         style="fill:#000000;fill-opacity:1;stroke:#000000;stroke-opacity:1" />
      <path
         d="m 307.28623,966.64595 0,4.76958 -44.83412,0 c 0.42394,6.71278 2.43777,11.83566 6.04148,15.36868 3.63899,3.4977 8.69121,5.24655 15.15669,5.24654 3.74496,10e-6 7.36631,-0.45928 10.86406,-1.37788 3.53297,-0.91858 7.03067,-2.29646 10.49309,-4.13364 l 0,9.2212 c -3.49775,1.48387 -7.08377,2.61444 -10.75807,3.39171 -3.67439,0.77726 -7.40174,1.16586 -11.18203,1.16586 -9.46855,0 -16.97622,-2.75572 -22.52306,-8.26725 -5.51153,-5.51151 -8.26729,-12.96619 -8.26728,-22.36406 -1e-5,-9.71579 2.61443,-17.41779 7.84332,-23.10601 5.26419,-5.72344 12.34791,-8.58519 21.25116,-8.58525 7.9846,6e-5 14.29105,2.57916 18.91937,7.73733 4.66353,5.12294 6.99533,12.10066 6.99539,20.93319 m -9.75116,-2.86176 c -0.0707,-5.33483 -1.57224,-9.59212 -4.50461,-12.77189 -2.89712,-3.17968 -6.74812,-4.76954 -11.553,-4.76959 -5.44089,5e-5 -9.80417,1.53692 -13.08987,4.6106 -3.2504,3.07378 -5.1229,7.40174 -5.61751,12.98388 l 34.76499,-0.053"
         id="path3040"
         style="fill:#000000;fill-opacity:1;stroke:#000000;stroke-opacity:1" />
    </g>
  </g>
</svg>
